<svg xmlns="http://www.w3.org/2000/svg" viewBox="0 0 650 460" width="650" height="460">
  <rect width="650" height="460" fill="#FFFEF9"/>
  <rect width="650" height="360" fill="#F5F0E8"/>
  <rect y="360" width="650" height="100" fill="#E8DFC8"/>
  <line x1="0" y1="360" x2="650" y2="360" stroke="#1E1E1E" stroke-width="2.5"/>

  <!-- CHALKBOARD -->
  <rect x="40" y="38" width="370" height="210" rx="4" fill="#2A4A3A" stroke="#5A3A1A" stroke-width="5"/>
  <rect x="50" y="47" width="350" height="192" rx="2" fill="#2F5244"/>
  <rect x="40" y="248" width="370" height="12" rx="2" fill="#5A3A1A"/>
  <rect x="55" y="251" width="20" height="7" rx="2" fill="#EEEBE0"/>
  <rect x="80" y="252" width="14" height="6" rx="2" fill="#EEEBE0"/>
  <text x="225" y="158" font-family="'Comic Sans MS', 'Segoe Print', cursive" font-size="36"
        fill="#EEEBE0" text-anchor="middle" opacity="0.92" transform="rotate(-1,225,158)">CALCULUSS</text>
  <line x1="108" y1="176" x2="342" y2="176" stroke="#EEEBE0" stroke-width="1.5" opacity="0.2"/>

  <!-- T2: The Point -->
  <circle cx="458" cy="113" r="20" fill="#1E1E1E"/>
  <circle cx="518" cy="113" r="20" fill="#1E1E1E"/>
  <circle cx="488" cy="152" r="50" fill="#FFFEF9" stroke="#1E1E1E" stroke-width="3.5"/>
  <ellipse cx="472" cy="150" rx="8" ry="5" fill="#1E1E1E"/>
  <ellipse cx="504" cy="150" rx="8" ry="5" fill="#1E1E1E"/>
  <path d="M460 136 Q472 143 480 140" stroke="#1E1E1E" stroke-width="5" fill="none" stroke-linecap="round"/>
  <path d="M496 140 Q504 143 516 136" stroke="#1E1E1E" stroke-width="5" fill="none" stroke-linecap="round"/>
  <path d="M468 175 Q488 168 508 175" stroke="#1E1E1E" stroke-width="4" fill="none" stroke-linecap="round"/>
  <line x1="488" y1="202" x2="487" y2="228" stroke="#1E1E1E" stroke-width="4" stroke-linecap="round"/>
  <path d="M487 228 Q485 268 483 318" stroke="#1E1E1E" stroke-width="4" fill="none" stroke-linecap="round"/>
  <path d="M510 242 Q490 236 450 232" stroke="#1E1E1E" stroke-width="4" fill="none" stroke-linecap="round"/>
  <circle cx="447" cy="231" r="9" fill="#FFFEF9" stroke="#1E1E1E" stroke-width="2.5"/>
  <rect x="365" y="226" width="82" height="11" rx="2" fill="#FF6700" stroke="#1E1E1E" stroke-width="2.5"/>
  <line x1="380" y1="228" x2="380" y2="235" stroke="#1E1E1E" stroke-width="1.5"/>
  <line x1="396" y1="228" x2="396" y2="235" stroke="#1E1E1E" stroke-width="1.5"/>
  <line x1="412" y1="228" x2="412" y2="235" stroke="#1E1E1E" stroke-width="1.5"/>
  <line x1="428" y1="228" x2="428" y2="235" stroke="#1E1E1E" stroke-width="1.5"/>
  <path d="M466 240 Q446 262 450 288" stroke="#1E1E1E" stroke-width="3.5" fill="none" stroke-linecap="round"/>
  <ellipse cx="450" cy="291" rx="8" ry="6" fill="#FFFEF9" stroke="#1E1E1E" stroke-width="2"/>
  <path d="M480 320 Q474 368 471 420" stroke="#1E1E1E" stroke-width="4" fill="none" stroke-linecap="round"/>
  <path d="M488 320 Q494 368 498 420" stroke="#1E1E1E" stroke-width="4" fill="none" stroke-linecap="round"/>
  <path d="M471 420 Q461 427 454 422" stroke="#1E1E1E" stroke-width="3" fill="none" stroke-linecap="round"/>
  <path d="M498 420 Q508 427 515 422" stroke="#1E1E1E" stroke-width="3" fill="none" stroke-linecap="round"/>

  <!-- DESK -->
  <rect x="170" y="318" width="210" height="16" rx="3" fill="none" stroke="#1E1E1E" stroke-width="3"/>
  <line x1="200" y1="334" x2="196" y2="420" stroke="#1E1E1E" stroke-width="3" stroke-linecap="round"/>
  <line x1="352" y1="334" x2="356" y2="420" stroke="#1E1E1E" stroke-width="3" stroke-linecap="round"/>
  <line x1="185" y1="385" x2="368" y2="385" stroke="#1E1E1E" stroke-width="2.5" stroke-linecap="round"/>
  <line x1="200" y1="385" x2="197" y2="420" stroke="#1E1E1E" stroke-width="2.5" stroke-linecap="round"/>
  <line x1="354" y1="385" x2="357" y2="420" stroke="#1E1E1E" stroke-width="2.5" stroke-linecap="round"/>
  <rect x="182" y="296" width="100" height="22" rx="2" fill="#fff" stroke="#1E1E1E" stroke-width="2"/>
  <line x1="194" y1="306" x2="270" y2="306" stroke="#ccc" stroke-width="1.5"/>
  <line x1="194" y1="313" x2="270" y2="313" stroke="#ccc" stroke-width="1.5"/>

  <!-- S3: The Shrink -->
  <circle cx="258" cy="312" r="34" fill="#FFFEF9" stroke="#1E1E1E" stroke-width="3"/>
  <line x1="241" y1="280" x2="236" y2="266" stroke="#1E1E1E" stroke-width="3" stroke-linecap="round"/>
  <line x1="250" y1="278" x2="247" y2="263" stroke="#1E1E1E" stroke-width="3" stroke-linecap="round"/>
  <line x1="258" y1="277" x2="258" y2="262" stroke="#1E1E1E" stroke-width="3" stroke-linecap="round"/>
  <line x1="266" y1="278" x2="269" y2="263" stroke="#1E1E1E" stroke-width="3" stroke-linecap="round"/>
  <line x1="275" y1="280" x2="280" y2="266" stroke="#1E1E1E" stroke-width="3" stroke-linecap="round"/>
  <ellipse cx="246" cy="300" rx="8" ry="7" fill="#1E1E1E"/>
  <ellipse cx="270" cy="300" rx="8" ry="7" fill="#1E1E1E"/>
  <circle cx="248" cy="297" r="2.5" fill="#FFFEF9"/>
  <circle cx="272" cy="297" r="2.5" fill="#FFFEF9"/>
  <path d="M238 291 Q246 286 254 290" stroke="#1E1E1E" stroke-width="2.5" fill="none" stroke-linecap="round"/>
  <path d="M262 290 Q270 286 278 291" stroke="#1E1E1E" stroke-width="2.5" fill="none" stroke-linecap="round"/>
  <path d="M224 320 Q220 336 218 356" stroke="#1E1E1E" stroke-width="3" fill="none" stroke-linecap="round"/>
  <path d="M292 320 Q296 336 298 356" stroke="#1E1E1E" stroke-width="3" fill="none" stroke-linecap="round"/>
  <ellipse cx="218" cy="359" rx="8" ry="6" fill="#FFFEF9" stroke="#1E1E1E" stroke-width="2"/>
  <ellipse cx="298" cy="359" rx="8" ry="6" fill="#FFFEF9" stroke="#1E1E1E" stroke-width="2"/>

  <!-- P2: Book tower + cat -->
  <rect x="328" y="302" width="58" height="15" rx="2" fill="#2C3E7A" stroke="#1E1E1E" stroke-width="2" transform="rotate(1,357,309)"/>
  <rect x="332" y="287" width="54" height="15" rx="2" fill="#A83232" stroke="#1E1E1E" stroke-width="2" transform="rotate(-2,359,294)"/>
  <rect x="326" y="272" width="60" height="15" rx="2" fill="#2E6B3A" stroke="#1E1E1E" stroke-width="2" transform="rotate(2,356,279)"/>
  <rect x="334" y="257" width="52" height="15" rx="2" fill="#6A2E8A" stroke="#1E1E1E" stroke-width="2" transform="rotate(-3,360,264)"/>
  <rect x="329" y="242" width="56" height="15" rx="2" fill="#B87A10" stroke="#1E1E1E" stroke-width="2" transform="rotate(3,357,249)"/>
  <rect x="336" y="227" width="48" height="15" rx="2" fill="#1A7A7A" stroke="#1E1E1E" stroke-width="2" transform="rotate(-6,360,234)"/>
  <ellipse cx="360" cy="208" rx="26" ry="16" fill="#B0B0B0" stroke="#1E1E1E" stroke-width="2"/>
  <circle cx="360" cy="188" r="20" fill="#B0B0B0" stroke="#1E1E1E" stroke-width="2"/>
  <path d="M344 176 Q338 160 350 169 Z" fill="#888"/>
  <path d="M374 174 Q382 158 372 169 Z" fill="#888"/>
  <ellipse cx="352" cy="185" rx="6" ry="4" fill="#1E1E1E"/>
  <ellipse cx="368" cy="185" rx="6" ry="4" fill="#1E1E1E"/>
  <path d="M346 182 Q352 178 358 182" stroke="#1E1E1E" stroke-width="2.5" fill="none"/>
  <path d="M362 182 Q368 178 374 182" stroke="#1E1E1E" stroke-width="2.5" fill="none"/>
  <path d="M352 196 Q360 202 368 196" stroke="#1E1E1E" stroke-width="2" fill="none" stroke-linecap="round"/>
  <path d="M356 191 L360 188 L364 191 Z" fill="#888"/>
  <line x1="360" y1="192" x2="330" y2="186" stroke="#1E1E1E" stroke-width="1.5" stroke-linecap="round"/>
  <line x1="360" y1="194" x2="330" y2="199" stroke="#1E1E1E" stroke-width="1.5" stroke-linecap="round"/>
  <line x1="360" y1="192" x2="390" y2="186" stroke="#1E1E1E" stroke-width="1.5" stroke-linecap="round"/>
  <line x1="360" y1="194" x2="390" y2="199" stroke="#1E1E1E" stroke-width="1.5" stroke-linecap="round"/>
  <path d="M334 210 Q318 228 330 238 Q342 246 350 232" stroke="#1E1E1E" stroke-width="2.5" fill="none" stroke-linecap="round"/>
  <ellipse cx="348" cy="220" rx="8" ry="5" fill="#B0B0B0" stroke="#1E1E1E" stroke-width="1.8"/>
  <ellipse cx="372" cy="220" rx="8" ry="5" fill="#B0B0B0" stroke="#1E1E1E" stroke-width="1.8"/>

</svg>
