<svg xmlns="http://www.w3.org/2000/svg" viewBox="0 0 650 460" width="650" height="460">
  <rect width="650" height="460" fill="#FFFEF9"/>
  <rect width="650" height="360" fill="#F5F0E8"/>
  <rect y="360" width="650" height="100" fill="#E8DFC8"/>
  <line x1="0" y1="360" x2="650" y2="360" stroke="#1E1E1E" stroke-width="2.5"/>

  <!-- CHALKBOARD -->
  <rect x="40" y="38" width="370" height="210" rx="4" fill="#2A4A3A" stroke="#5A3A1A" stroke-width="5"/>
  <rect x="50" y="47" width="350" height="192" rx="2" fill="#2F5244"/>
  <rect x="40" y="248" width="370" height="12" rx="2" fill="#5A3A1A"/>
  <rect x="55" y="251" width="20" height="7" rx="2" fill="#EEEBE0"/>
  <rect x="80" y="252" width="14" height="6" rx="2" fill="#EEEBE0"/>
  <text x="225" y="158" font-family="'Comic Sans MS', 'Segoe Print', cursive" font-size="36"
        fill="#EEEBE0" text-anchor="middle" opacity="0.92" transform="rotate(-1,225,158)">GEOGRAFY</text>
  <line x1="108" y1="176" x2="342" y2="176" stroke="#EEEBE0" stroke-width="1.5" opacity="0.2"/>

  <!-- T2: The Point -->
  <circle cx="458" cy="113" r="20" fill="#1E1E1E"/>
  <circle cx="518" cy="113" r="20" fill="#1E1E1E"/>
  <circle cx="488" cy="152" r="50" fill="#FFFEF9" stroke="#1E1E1E" stroke-width="3.5"/>
  <ellipse cx="472" cy="150" rx="8" ry="5" fill="#1E1E1E"/>
  <ellipse cx="504" cy="150" rx="8" ry="5" fill="#1E1E1E"/>
  <path d="M460 136 Q472 143 480 140" stroke="#1E1E1E" stroke-width="5" fill="none" stroke-linecap="round"/>
  <path d="M496 140 Q504 143 516 136" stroke="#1E1E1E" stroke-width="5" fill="none" stroke-linecap="round"/>
  <path d="M468 175 Q488 168 508 175" stroke="#1E1E1E" stroke-width="4" fill="none" stroke-linecap="round"/>
  <line x1="488" y1="202" x2="487" y2="228" stroke="#1E1E1E" stroke-width="4" stroke-linecap="round"/>
  <path d="M487 228 Q485 268 483 318" stroke="#1E1E1E" stroke-width="4" fill="none" stroke-linecap="round"/>
  <path d="M510 242 Q490 236 450 232" stroke="#1E1E1E" stroke-width="4" fill="none" stroke-linecap="round"/>
  <circle cx="447" cy="231" r="9" fill="#FFFEF9" stroke="#1E1E1E" stroke-width="2.5"/>
  <rect x="365" y="226" width="82" height="11" rx="2" fill="#FF6700" stroke="#1E1E1E" stroke-width="2.5"/>
  <line x1="380" y1="228" x2="380" y2="235" stroke="#1E1E1E" stroke-width="1.5"/>
  <line x1="396" y1="228" x2="396" y2="235" stroke="#1E1E1E" stroke-width="1.5"/>
  <line x1="412" y1="228" x2="412" y2="235" stroke="#1E1E1E" stroke-width="1.5"/>
  <line x1="428" y1="228" x2="428" y2="235" stroke="#1E1E1E" stroke-width="1.5"/>
  <path d="M466 240 Q446 262 450 288" stroke="#1E1E1E" stroke-width="3.5" fill="none" stroke-linecap="round"/>
  <ellipse cx="450" cy="291" rx="8" ry="6" fill="#FFFEF9" stroke="#1E1E1E" stroke-width="2"/>
  <path d="M480 320 Q474 368 471 420" stroke="#1E1E1E" stroke-width="4" fill="none" stroke-linecap="round"/>
  <path d="M488 320 Q494 368 498 420" stroke="#1E1E1E" stroke-width="4" fill="none" stroke-linecap="round"/>
  <path d="M471 420 Q461 427 454 422" stroke="#1E1E1E" stroke-width="3" fill="none" stroke-linecap="round"/>
  <path d="M498 420 Q508 427 515 422" stroke="#1E1E1E" stroke-width="3" fill="none" stroke-linecap="round"/>

  <!-- DESK -->
  <rect x="170" y="318" width="210" height="16" rx="3" fill="none" stroke="#1E1E1E" stroke-width="3"/>
  <line x1="200" y1="334" x2="196" y2="420" stroke="#1E1E1E" stroke-width="3" stroke-linecap="round"/>
  <line x1="352" y1="334" x2="356" y2="420" stroke="#1E1E1E" stroke-width="3" stroke-linecap="round"/>
  <line x1="185" y1="385" x2="368" y2="385" stroke="#1E1E1E" stroke-width="2.5" stroke-linecap="round"/>
  <line x1="200" y1="385" x2="197" y2="420" stroke="#1E1E1E" stroke-width="2.5" stroke-linecap="round"/>
  <line x1="354" y1="385" x2="357" y2="420" stroke="#1E1E1E" stroke-width="2.5" stroke-linecap="round"/>
  <rect x="196" y="292" width="130" height="26" rx="2" fill="#fff" stroke="#1E1E1E" stroke-width="2"/>
  <line x1="261" y1="292" x2="261" y2="318" stroke="#1E1E1E" stroke-width="1.5"/>
  <line x1="204" y1="301" x2="257" y2="301" stroke="#ccc" stroke-width="1.2"/>
  <line x1="204" y1="308" x2="257" y2="308" stroke="#ccc" stroke-width="1.2"/>
  <line x1="265" y1="301" x2="318" y2="301" stroke="#ccc" stroke-width="1.2"/>
  <line x1="265" y1="308" x2="318" y2="308" stroke="#ccc" stroke-width="1.2"/>

  <!-- S2: The Freeze -->
  <circle cx="278" cy="230" r="46" fill="#FFFEF9" stroke="#1E1E1E" stroke-width="3.5"/>
  <line x1="254" y1="186" x2="248" y2="169" stroke="#1E1E1E" stroke-width="3" stroke-linecap="round"/>
  <line x1="266" y1="185" x2="262" y2="167" stroke="#1E1E1E" stroke-width="3" stroke-linecap="round"/>
  <line x1="278" y1="184" x2="278" y2="166" stroke="#1E1E1E" stroke-width="3" stroke-linecap="round"/>
  <line x1="290" y1="185" x2="294" y2="167" stroke="#1E1E1E" stroke-width="3" stroke-linecap="round"/>
  <line x1="302" y1="186" x2="308" y2="170" stroke="#1E1E1E" stroke-width="3" stroke-linecap="round"/>
  <ellipse cx="263" cy="226" rx="12" ry="13" fill="#1E1E1E"/>
  <ellipse cx="293" cy="226" rx="12" ry="13" fill="#1E1E1E"/>
  <circle cx="267" cy="220" r="4" fill="#FFFEF9"/>
  <circle cx="297" cy="220" r="4" fill="#FFFEF9"/>
  <path d="M249 206 Q263 198 277 204" stroke="#1E1E1E" stroke-width="3.5" fill="none" stroke-linecap="round"/>
  <path d="M279 204 Q293 198 307 206" stroke="#1E1E1E" stroke-width="3.5" fill="none" stroke-linecap="round"/>
  <line x1="266" y1="254" x2="290" y2="254" stroke="#1E1E1E" stroke-width="3" stroke-linecap="round"/>
  <line x1="278" y1="276" x2="278" y2="334" stroke="#1E1E1E" stroke-width="4" stroke-linecap="round"/>
  <path d="M260 316 Q252 322 240 318" stroke="#1E1E1E" stroke-width="3.5" fill="none" stroke-linecap="round"/>
  <ellipse cx="236" cy="316" rx="10" ry="6" fill="#FFFEF9" stroke="#1E1E1E" stroke-width="2"/>
  <path d="M296 316 Q306 322 318 318" stroke="#1E1E1E" stroke-width="3.5" fill="none" stroke-linecap="round"/>
  <ellipse cx="322" cy="316" rx="10" ry="6" fill="#FFFEF9" stroke="#1E1E1E" stroke-width="2"/>
  <path d="M274 336 Q272 360 270 380" stroke="#1E1E1E" stroke-width="3.5" fill="none" stroke-linecap="round"/>
  <path d="M282 336 Q284 360 286 380" stroke="#1E1E1E" stroke-width="3.5" fill="none" stroke-linecap="round"/>

  <!-- P3: Cat on notebook -->
  <ellipse cx="261" cy="285" rx="38" ry="20" fill="#B0B0B0" stroke="#1E1E1E" stroke-width="2.5"/>
  <circle cx="261" cy="260" r="24" fill="#B0B0B0" stroke="#1E1E1E" stroke-width="2.5"/>
  <path d="M242 248 Q234 230 248 240 Z" fill="#888"/>
  <path d="M279 246 Q288 228 274 240 Z" fill="#888"/>
  <ellipse cx="251" cy="257" rx="7" ry="6" fill="#1E1E1E"/>
  <ellipse cx="271" cy="257" rx="7" ry="6" fill="#1E1E1E"/>
  <path d="M244 253 Q251 248 258 253" stroke="#1E1E1E" stroke-width="3" fill="none"/>
  <path d="M264 253 Q271 248 278 253" stroke="#1E1E1E" stroke-width="3" fill="none"/>
  <path d="M244 246 Q251 250 258 247" stroke="#1E1E1E" stroke-width="2.5" fill="none"/>
  <path d="M264 247 Q271 250 278 246" stroke="#1E1E1E" stroke-width="2.5" fill="none"/>
  <path d="M256 264 L261 260 L266 264 Z" fill="#888"/>
  <path d="M248 273 Q261 267 274 273" stroke="#1E1E1E" stroke-width="2.5" fill="none" stroke-linecap="round"/>
  <line x1="261" y1="265" x2="218" y2="257" stroke="#1E1E1E" stroke-width="1.5" stroke-linecap="round"/>
  <line x1="261" y1="268" x2="218" y2="275" stroke="#1E1E1E" stroke-width="1.5" stroke-linecap="round"/>
  <line x1="261" y1="265" x2="304" y2="257" stroke="#1E1E1E" stroke-width="1.5" stroke-linecap="round"/>
  <line x1="261" y1="268" x2="304" y2="275" stroke="#1E1E1E" stroke-width="1.5" stroke-linecap="round"/>
  <ellipse cx="243" cy="297" rx="10" ry="6" fill="#B0B0B0" stroke="#1E1E1E" stroke-width="2"/>
  <ellipse cx="279" cy="297" rx="10" ry="6" fill="#B0B0B0" stroke="#1E1E1E" stroke-width="2"/>
  <path d="M299 290 Q318 306 308 318 Q298 328 284 318" stroke="#1E1E1E" stroke-width="2.5" fill="none" stroke-linecap="round"/>

</svg>
