<svg xmlns="http://www.w3.org/2000/svg" viewBox="0 0 650 460" width="650" height="460">
  <rect width="650" height="460" fill="#FFFEF9"/>
  <rect width="650" height="360" fill="#F5F0E8"/>
  <rect y="360" width="650" height="100" fill="#E8DFC8"/>
  <line x1="0" y1="360" x2="650" y2="360" stroke="#1E1E1E" stroke-width="2.5"/>
  <!-- CHALKBOARD -->
  <rect x="40" y="38" width="370" height="210" rx="4" fill="#2A4A3A" stroke="#5A3A1A" stroke-width="5"/>
  <rect x="50" y="47" width="350" height="192" rx="2" fill="#2F5244"/>
  <rect x="40" y="248" width="370" height="12" rx="2" fill="#5A3A1A"/>
  <rect x="55" y="251" width="20" height="7" rx="2" fill="#EEEBE0"/>
  <rect x="80" y="252" width="14" height="6" rx="2" fill="#EEEBE0"/>
  <text x="225" y="158" font-family="'Comic Sans MS', 'Segoe Print', cursive" font-size="28"
        fill="#EEEBE0" text-anchor="middle" opacity="0.92" transform="rotate(-1,225,158)">TRIGONOMATRY</text>
  <line x1="108" y1="176" x2="342" y2="176" stroke="#EEEBE0" stroke-width="1.5" opacity="0.2"/>
  <!-- T3: The Tap -->
  <circle cx="458" cy="113" r="20" fill="#1E1E1E"/>
  <circle cx="518" cy="113" r="20" fill="#1E1E1E"/>
  <circle cx="488" cy="152" r="50" fill="#FFFEF9" stroke="#1E1E1E" stroke-width="3.5"/>
  <ellipse cx="472" cy="150" rx="8" ry="5" fill="#1E1E1E"/>
  <ellipse cx="504" cy="150" rx="8" ry="5" fill="#1E1E1E"/>
  <path d="M460 136 Q472 143 480 140" stroke="#1E1E1E" stroke-width="5" fill="none" stroke-linecap="round"/>
  <path d="M496 140 Q504 143 516 136" stroke="#1E1E1E" stroke-width="5" fill="none" stroke-linecap="round"/>
  <path d="M468 175 Q488 168 508 175" stroke="#1E1E1E" stroke-width="4" fill="none" stroke-linecap="round"/>
  <line x1="488" y1="202" x2="488" y2="232" stroke="#1E1E1E" stroke-width="4" stroke-linecap="round"/>
  <path d="M488 232 Q487 272 485 318" stroke="#1E1E1E" stroke-width="4" fill="none" stroke-linecap="round"/>
  <path d="M508 244 Q518 258 516 276" stroke="#1E1E1E" stroke-width="4" fill="none" stroke-linecap="round"/>
  <circle cx="516" cy="279" r="9" fill="#FFFEF9" stroke="#1E1E1E" stroke-width="2.5"/>
  <rect x="474" y="272" width="11" height="68" rx="2" fill="#FF6700" stroke="#1E1E1E" stroke-width="2.5" transform="rotate(25,479,306)"/>
  <line x1="476" y1="285" x2="483" y2="281" stroke="#1E1E1E" stroke-width="1.5"/>
  <line x1="479" y1="297" x2="486" y2="293" stroke="#1E1E1E" stroke-width="1.5"/>
  <line x1="482" y1="309" x2="489" y2="305" stroke="#1E1E1E" stroke-width="1.5"/>
  <path d="M466 244 Q454 262 448 280" stroke="#1E1E1E" stroke-width="4" fill="none" stroke-linecap="round"/>
  <ellipse cx="449" cy="283" rx="11" ry="7" fill="#FFFEF9" stroke="#1E1E1E" stroke-width="2.5" transform="rotate(-15,449,283)"/>
  <path d="M482 320 Q476 368 473 420" stroke="#1E1E1E" stroke-width="4" fill="none" stroke-linecap="round"/>
  <path d="M490 320 Q496 368 500 420" stroke="#1E1E1E" stroke-width="4" fill="none" stroke-linecap="round"/>
  <path d="M473 420 Q463 427 456 422" stroke="#1E1E1E" stroke-width="3" fill="none" stroke-linecap="round"/>
  <path d="M500 420 Q510 427 517 422" stroke="#1E1E1E" stroke-width="3" fill="none" stroke-linecap="round"/>
  <!-- DESK -->
  <rect x="170" y="318" width="210" height="16" rx="3" fill="none" stroke="#1E1E1E" stroke-width="3"/>
  <line x1="200" y1="334" x2="196" y2="420" stroke="#1E1E1E" stroke-width="3" stroke-linecap="round"/>
  <line x1="352" y1="334" x2="356" y2="420" stroke="#1E1E1E" stroke-width="3" stroke-linecap="round"/>
  <line x1="185" y1="385" x2="368" y2="385" stroke="#1E1E1E" stroke-width="2.5" stroke-linecap="round"/>
  <line x1="200" y1="385" x2="197" y2="420" stroke="#1E1E1E" stroke-width="2.5" stroke-linecap="round"/>
  <line x1="354" y1="385" x2="357" y2="420" stroke="#1E1E1E" stroke-width="2.5" stroke-linecap="round"/>
  <rect x="196" y="292" width="130" height="26" rx="2" fill="#fff" stroke="#1E1E1E" stroke-width="2"/>
  <line x1="261" y1="292" x2="261" y2="318" stroke="#1E1E1E" stroke-width="1.5"/>
  <line x1="204" y1="301" x2="257" y2="301" stroke="#ccc" stroke-width="1.2"/>
  <line x1="204" y1="308" x2="257" y2="308" stroke="#ccc" stroke-width="1.2"/>
  <line x1="265" y1="301" x2="318" y2="301" stroke="#ccc" stroke-width="1.2"/>
  <line x1="265" y1="308" x2="318" y2="308" stroke="#ccc" stroke-width="1.2"/>
  <!-- S3: The Shrink -->
  <circle cx="261" cy="313" r="34" fill="#FFFEF9" stroke="#1E1E1E" stroke-width="3"/>
  <line x1="244" y1="281" x2="239" y2="267" stroke="#1E1E1E" stroke-width="3" stroke-linecap="round"/>
  <line x1="253" y1="279" x2="250" y2="264" stroke="#1E1E1E" stroke-width="3" stroke-linecap="round"/>
  <line x1="261" y1="278" x2="261" y2="263" stroke="#1E1E1E" stroke-width="3" stroke-linecap="round"/>
  <line x1="269" y1="279" x2="272" y2="264" stroke="#1E1E1E" stroke-width="3" stroke-linecap="round"/>
  <line x1="278" y1="281" x2="283" y2="267" stroke="#1E1E1E" stroke-width="3" stroke-linecap="round"/>
  <ellipse cx="249" cy="301" rx="7" ry="7" fill="#1E1E1E"/>
  <ellipse cx="273" cy="301" rx="7" ry="7" fill="#1E1E1E"/>
  <circle cx="251" cy="298" r="2.5" fill="#FFFEF9"/>
  <circle cx="275" cy="298" r="2.5" fill="#FFFEF9"/>
  <path d="M241 292 Q249 287 257 291" stroke="#1E1E1E" stroke-width="2.5" fill="none" stroke-linecap="round"/>
  <path d="M265 291 Q273 287 281 292" stroke="#1E1E1E" stroke-width="2.5" fill="none" stroke-linecap="round"/>
  <path d="M227 320 Q223 336 221 356" stroke="#1E1E1E" stroke-width="3" fill="none" stroke-linecap="round"/>
  <path d="M295 320 Q299 336 301 356" stroke="#1E1E1E" stroke-width="3" fill="none" stroke-linecap="round"/>
  <ellipse cx="221" cy="359" rx="8" ry="6" fill="#FFFEF9" stroke="#1E1E1E" stroke-width="2"/>
  <ellipse cx="301" cy="359" rx="8" ry="6" fill="#FFFEF9" stroke="#1E1E1E" stroke-width="2"/>
  <!-- P3: Cat on notebook -->
  <ellipse cx="261" cy="285" rx="38" ry="20" fill="#B0B0B0" stroke="#1E1E1E" stroke-width="2.5"/>
  <circle cx="261" cy="260" r="24" fill="#B0B0B0" stroke="#1E1E1E" stroke-width="2.5"/>
  <path d="M242 248 Q234 230 248 240 Z" fill="#888"/>
  <path d="M279 246 Q288 228 274 240 Z" fill="#888"/>
  <ellipse cx="251" cy="257" rx="7" ry="6" fill="#1E1E1E"/>
  <ellipse cx="271" cy="257" rx="7" ry="6" fill="#1E1E1E"/>
  <path d="M244 253 Q251 248 258 253" stroke="#1E1E1E" stroke-width="3" fill="none"/>
  <path d="M264 253 Q271 248 278 253" stroke="#1E1E1E" stroke-width="3" fill="none"/>
  <path d="M244 246 Q251 250 258 247" stroke="#1E1E1E" stroke-width="2.5" fill="none"/>
  <path d="M264 247 Q271 250 278 246" stroke="#1E1E1E" stroke-width="2.5" fill="none"/>
  <path d="M256 264 L261 260 L266 264 Z" fill="#888"/>
  <path d="M248 273 Q261 267 274 273" stroke="#1E1E1E" stroke-width="2.5" fill="none" stroke-linecap="round"/>
  <line x1="261" y1="265" x2="218" y2="257" stroke="#1E1E1E" stroke-width="1.5" stroke-linecap="round"/>
  <line x1="261" y1="268" x2="218" y2="275" stroke="#1E1E1E" stroke-width="1.5" stroke-linecap="round"/>
  <line x1="261" y1="265" x2="304" y2="257" stroke="#1E1E1E" stroke-width="1.5" stroke-linecap="round"/>
  <line x1="261" y1="268" x2="304" y2="275" stroke="#1E1E1E" stroke-width="1.5" stroke-linecap="round"/>
  <ellipse cx="243" cy="297" rx="10" ry="6" fill="#B0B0B0" stroke="#1E1E1E" stroke-width="2"/>
  <ellipse cx="279" cy="297" rx="10" ry="6" fill="#B0B0B0" stroke="#1E1E1E" stroke-width="2"/>
  <path d="M299 290 Q318 306 308 318 Q298 328 284 318" stroke="#1E1E1E" stroke-width="2.5" fill="none" stroke-linecap="round"/>
</svg>
