<svg xmlns="http://www.w3.org/2000/svg" viewBox="0 0 650 460" width="650" height="460">
  <rect width="650" height="460" fill="#FFFEF9"/>
  <rect width="650" height="360" fill="#F5F0E8"/>
  <rect y="360" width="650" height="100" fill="#E8DFC8"/>
  <line x1="0" y1="360" x2="650" y2="360" stroke="#1E1E1E" stroke-width="2.5"/>
  <!-- CHALKBOARD -->
  <rect x="40" y="38" width="370" height="210" rx="4" fill="#2A4A3A" stroke="#5A3A1A" stroke-width="5"/>
  <rect x="50" y="47" width="350" height="192" rx="2" fill="#2F5244"/>
  <rect x="40" y="248" width="370" height="12" rx="2" fill="#5A3A1A"/>
  <rect x="55" y="251" width="20" height="7" rx="2" fill="#EEEBE0"/>
  <rect x="80" y="252" width="14" height="6" rx="2" fill="#EEEBE0"/>
  <text x="225" y="158" font-family="'Comic Sans MS', 'Segoe Print', cursive" font-size="38"
        fill="#EEEBE0" text-anchor="middle" opacity="0.92" transform="rotate(-1,225,158)">KEMISTRY</text>
  <line x1="108" y1="176" x2="342" y2="176" stroke="#EEEBE0" stroke-width="1.5" opacity="0.2"/>
  <!-- T3: The Tap -->
  <circle cx="458" cy="113" r="20" fill="#1E1E1E"/>
  <circle cx="518" cy="113" r="20" fill="#1E1E1E"/>
  <circle cx="488" cy="152" r="50" fill="#FFFEF9" stroke="#1E1E1E" stroke-width="3.5"/>
  <ellipse cx="472" cy="150" rx="8" ry="5" fill="#1E1E1E"/>
  <ellipse cx="504" cy="150" rx="8" ry="5" fill="#1E1E1E"/>
  <path d="M460 136 Q472 143 480 140" stroke="#1E1E1E" stroke-width="5" fill="none" stroke-linecap="round"/>
  <path d="M496 140 Q504 143 516 136" stroke="#1E1E1E" stroke-width="5" fill="none" stroke-linecap="round"/>
  <path d="M468 175 Q488 168 508 175" stroke="#1E1E1E" stroke-width="4" fill="none" stroke-linecap="round"/>
  <line x1="488" y1="202" x2="488" y2="232" stroke="#1E1E1E" stroke-width="4" stroke-linecap="round"/>
  <path d="M488 232 Q487 272 485 318" stroke="#1E1E1E" stroke-width="4" fill="none" stroke-linecap="round"/>
  <path d="M508 244 Q518 258 516 276" stroke="#1E1E1E" stroke-width="4" fill="none" stroke-linecap="round"/>
  <circle cx="516" cy="279" r="9" fill="#FFFEF9" stroke="#1E1E1E" stroke-width="2.5"/>
  <rect x="474" y="272" width="11" height="68" rx="2" fill="#FF6700" stroke="#1E1E1E" stroke-width="2.5" transform="rotate(25,479,306)"/>
  <line x1="476" y1="285" x2="483" y2="281" stroke="#1E1E1E" stroke-width="1.5"/>
  <line x1="479" y1="297" x2="486" y2="293" stroke="#1E1E1E" stroke-width="1.5"/>
  <line x1="482" y1="309" x2="489" y2="305" stroke="#1E1E1E" stroke-width="1.5"/>
  <path d="M466 244 Q454 262 448 280" stroke="#1E1E1E" stroke-width="4" fill="none" stroke-linecap="round"/>
  <ellipse cx="449" cy="283" rx="11" ry="7" fill="#FFFEF9" stroke="#1E1E1E" stroke-width="2.5" transform="rotate(-15,449,283)"/>
  <path d="M482 320 Q476 368 473 420" stroke="#1E1E1E" stroke-width="4" fill="none" stroke-linecap="round"/>
  <path d="M490 320 Q496 368 500 420" stroke="#1E1E1E" stroke-width="4" fill="none" stroke-linecap="round"/>
  <path d="M473 420 Q463 427 456 422" stroke="#1E1E1E" stroke-width="3" fill="none" stroke-linecap="round"/>
  <path d="M500 420 Q510 427 517 422" stroke="#1E1E1E" stroke-width="3" fill="none" stroke-linecap="round"/>
  <!-- DESK -->
  <rect x="170" y="318" width="210" height="16" rx="3" fill="none" stroke="#1E1E1E" stroke-width="3"/>
  <line x1="200" y1="334" x2="196" y2="420" stroke="#1E1E1E" stroke-width="3" stroke-linecap="round"/>
  <line x1="352" y1="334" x2="356" y2="420" stroke="#1E1E1E" stroke-width="3" stroke-linecap="round"/>
  <line x1="185" y1="385" x2="368" y2="385" stroke="#1E1E1E" stroke-width="2.5" stroke-linecap="round"/>
  <line x1="200" y1="385" x2="197" y2="420" stroke="#1E1E1E" stroke-width="2.5" stroke-linecap="round"/>
  <line x1="354" y1="385" x2="357" y2="420" stroke="#1E1E1E" stroke-width="2.5" stroke-linecap="round"/>
  <rect x="210" y="296" width="110" height="22" rx="2" fill="#fff" stroke="#1E1E1E" stroke-width="2"/>
  <line x1="222" y1="306" x2="308" y2="306" stroke="#ccc" stroke-width="1.5"/>
  <line x1="222" y1="313" x2="308" y2="313" stroke="#ccc" stroke-width="1.5"/>
  <!-- S2: The Freeze -->
  <circle cx="278" cy="230" r="46" fill="#FFFEF9" stroke="#1E1E1E" stroke-width="3.5"/>
  <line x1="254" y1="186" x2="248" y2="169" stroke="#1E1E1E" stroke-width="3" stroke-linecap="round"/>
  <line x1="266" y1="185" x2="262" y2="167" stroke="#1E1E1E" stroke-width="3" stroke-linecap="round"/>
  <line x1="278" y1="184" x2="278" y2="166" stroke="#1E1E1E" stroke-width="3" stroke-linecap="round"/>
  <line x1="290" y1="185" x2="294" y2="167" stroke="#1E1E1E" stroke-width="3" stroke-linecap="round"/>
  <line x1="302" y1="186" x2="308" y2="170" stroke="#1E1E1E" stroke-width="3" stroke-linecap="round"/>
  <ellipse cx="263" cy="226" rx="12" ry="13" fill="#1E1E1E"/>
  <ellipse cx="293" cy="226" rx="12" ry="13" fill="#1E1E1E"/>
  <circle cx="267" cy="220" r="4" fill="#FFFEF9"/>
  <circle cx="297" cy="220" r="4" fill="#FFFEF9"/>
  <path d="M249 206 Q263 198 277 204" stroke="#1E1E1E" stroke-width="3.5" fill="none" stroke-linecap="round"/>
  <path d="M279 204 Q293 198 307 206" stroke="#1E1E1E" stroke-width="3.5" fill="none" stroke-linecap="round"/>
  <line x1="266" y1="254" x2="290" y2="254" stroke="#1E1E1E" stroke-width="3" stroke-linecap="round"/>
  <line x1="278" y1="276" x2="278" y2="334" stroke="#1E1E1E" stroke-width="4" stroke-linecap="round"/>
  <path d="M260 316 Q252 322 240 318" stroke="#1E1E1E" stroke-width="3.5" fill="none" stroke-linecap="round"/>
  <ellipse cx="236" cy="316" rx="10" ry="6" fill="#FFFEF9" stroke="#1E1E1E" stroke-width="2"/>
  <path d="M296 316 Q306 322 318 318" stroke="#1E1E1E" stroke-width="3.5" fill="none" stroke-linecap="round"/>
  <ellipse cx="322" cy="316" rx="10" ry="6" fill="#FFFEF9" stroke="#1E1E1E" stroke-width="2"/>
  <path d="M274 336 Q272 360 270 380" stroke="#1E1E1E" stroke-width="3.5" fill="none" stroke-linecap="round"/>
  <path d="M282 336 Q284 360 286 380" stroke="#1E1E1E" stroke-width="3.5" fill="none" stroke-linecap="round"/>
  <!-- P1: Floor chaos + cat -->
  <circle cx="158" cy="372" r="11" fill="#FFFEF9" stroke="#1E1E1E" stroke-width="2"/>
  <path d="M150 368 Q157 363 163 370 Q169 365 165 375" stroke="#888" stroke-width="1.5" fill="none"/>
  <circle cx="392" cy="375" r="10" fill="#FFFEF9" stroke="#1E1E1E" stroke-width="2"/>
  <path d="M385 371 Q391 367 397 373 Q402 369 399 378" stroke="#888" stroke-width="1.5" fill="none"/>
  <circle cx="116" cy="385" r="11" fill="#FFFEF9" stroke="#1E1E1E" stroke-width="2"/>
  <path d="M109 381 Q115 377 120 383 Q126 379 123 388" stroke="#888" stroke-width="1.5" fill="none"/>
  <rect x="315" y="362" width="30" height="6" rx="2" fill="#FF6700" stroke="#1E1E1E" stroke-width="2" transform="rotate(-15,330,365)"/>
  <rect x="348" y="350" width="28" height="6" rx="2" fill="#FF6700" stroke="#1E1E1E" stroke-width="2" transform="rotate(-38,362,353)"/>
  <path d="M370 344 L378 338 L374 348 Z" fill="#1E1E1E"/>
  <ellipse cx="68" cy="418" rx="52" ry="32" fill="#B0B0B0" stroke="#1E1E1E" stroke-width="2.5"/>
  <circle cx="68" cy="382" r="30" fill="#B0B0B0" stroke="#1E1E1E" stroke-width="2.5"/>
  <path d="M46 364 Q38 344 56 354 Z" fill="#888"/>
  <path d="M86 362 Q96 342 88 356 Z" fill="#888"/>
  <ellipse cx="57" cy="378" rx="7" ry="6" fill="#1E1E1E"/>
  <ellipse cx="79" cy="378" rx="7" ry="6" fill="#1E1E1E"/>
  <path d="M50 374 Q57 369 64 374" stroke="#1E1E1E" stroke-width="3" fill="none"/>
  <path d="M72 374 Q79 369 86 374" stroke="#1E1E1E" stroke-width="3" fill="none"/>
  <path d="M50 367 Q57 371 64 368" stroke="#1E1E1E" stroke-width="2.5" fill="none"/>
  <path d="M72 368 Q79 371 86 367" stroke="#1E1E1E" stroke-width="2.5" fill="none"/>
  <path d="M63 386 L68 382 L73 386 Z" fill="#888"/>
  <path d="M58 395 Q68 389 78 395" stroke="#1E1E1E" stroke-width="2.5" fill="none" stroke-linecap="round"/>
  <line x1="68" y1="387" x2="20" y2="378" stroke="#1E1E1E" stroke-width="1.5" stroke-linecap="round"/>
  <line x1="68" y1="390" x2="20" y2="395" stroke="#1E1E1E" stroke-width="1.5" stroke-linecap="round"/>
  <line x1="68" y1="387" x2="116" y2="378" stroke="#1E1E1E" stroke-width="1.5" stroke-linecap="round"/>
  <line x1="68" y1="390" x2="116" y2="395" stroke="#1E1E1E" stroke-width="1.5" stroke-linecap="round"/>
  <path d="M18 418 Q8 440 32 447 Q56 452 68 440" stroke="#1E1E1E" stroke-width="2.5" fill="none" stroke-linecap="round"/>
  <path d="M88 422 Q104 414 116 398" stroke="#1E1E1E" stroke-width="3" fill="none" stroke-linecap="round"/>
  <ellipse cx="116" cy="395" rx="9" ry="7" fill="#B0B0B0" stroke="#1E1E1E" stroke-width="2"/>
  <line x1="110" y1="392" x2="107" y2="387" stroke="#1E1E1E" stroke-width="1.5" stroke-linecap="round"/>
  <line x1="116" y1="390" x2="114" y2="385" stroke="#1E1E1E" stroke-width="1.5" stroke-linecap="round"/>
  <line x1="122" y1="392" x2="121" y2="387" stroke="#1E1E1E" stroke-width="1.5" stroke-linecap="round"/>
</svg>
